<svg width="18" height="18" viewBox="0 0 18 18" fill="none" xmlns="http://www.w3.org/2000/svg">
<rect width="18" height="18" rx="4" fill="url(#paint0_linear_154_12168)"/>
<path d="M8.99463 3.16602C8.67263 3.16602 8.4113 3.42717 8.4113 3.74935V9.91052L6.6613 8.17919L5.84113 8.99935L8.57522 11.7521C8.8033 11.9796 9.18596 11.9796 9.41405 11.7521L12.1481 8.99935L11.328 8.17919L9.57797 9.91052V3.74935C9.57797 3.42717 9.31663 3.16596 8.99463 3.16602ZM4.32796 10.166C4.00596 10.166 3.74463 10.4274 3.74463 10.7494V11.916C3.74463 13.2046 4.78938 14.2494 6.07796 14.2494H11.9113C13.1999 14.2494 14.2446 13.2046 14.2446 11.916V10.7494C14.2446 10.4274 13.9833 10.166 13.6613 10.166C13.3393 10.166 13.078 10.4274 13.078 10.7494V11.916C13.078 12.5606 12.5559 13.0827 11.9113 13.0827H6.07796C5.43338 13.0827 4.9113 12.5606 4.9113 11.916V10.7494C4.9113 10.4274 4.64996 10.166 4.32796 10.166Z" fill="white"/>
<defs>
<linearGradient id="paint0_linear_154_12168" x1="0.986302" y1="1.10959" x2="20" y2="20" gradientUnits="userSpaceOnUse">
<stop stop-color="#FFB951"/>
<stop offset="1" stop-color="#E86F48"/>
</linearGradient>
</defs>
</svg>
