<svg width="12" height="11" viewBox="0 0 12 11" fill="none" xmlns="http://www.w3.org/2000/svg">
<path d="M0.916504 10.2244C0.916504 10.6386 1.25229 10.9744 1.6665 10.9744C2.08072 10.9744 2.4165 10.6386 2.4165 10.2244H0.916504ZM4.96748 3.6651L4.73231 2.95292L4.96748 3.6651ZM1.90032 6.78217L1.18594 6.55377L1.90032 6.78217ZM9.88392 0.517122C9.61723 0.200182 9.14411 0.159442 8.82717 0.426128C8.51023 0.692814 8.46949 1.16594 8.73617 1.48288L9.88392 0.517122ZM10.72 2.67564L10.1461 3.15851L10.1649 3.18086L10.1854 3.20167L10.72 2.67564ZM10.656 4.10817L10.1713 3.53584L10.1538 3.55066L10.1373 3.56653L10.656 4.10817ZM8.31354 5.31333C8.01441 5.59984 8.00418 6.07461 8.29069 6.37374C8.57721 6.67288 9.05197 6.6831 9.35111 6.39659L8.31354 5.31333ZM10.9977 3.42748L11.746 3.47695L10.9977 3.42748ZM8.3546 4.17748H10.2655V2.67748H8.3546V4.17748ZM8.3546 2.67748C6.63546 2.67748 5.59531 2.66795 4.73231 2.95292L5.20264 4.37727C5.77885 4.18701 6.51706 4.17748 8.3546 4.17748V2.67748ZM2.4165 10.2244C2.4165 8.35957 2.42549 7.60236 2.61469 7.01057L1.18594 6.55377C0.907518 7.42462 0.916504 8.47469 0.916504 10.2244H2.4165ZM4.73231 2.95292C3.04646 3.5096 1.73046 4.85065 1.18594 6.55377L2.61469 7.01057C3.01528 5.75763 3.97977 4.78108 5.20264 4.37727L4.73231 2.95292ZM8.73617 1.48288L10.1461 3.15851L11.2939 2.19276L9.88392 0.517122L8.73617 1.48288ZM10.1373 3.56653L8.31354 5.31333L9.35111 6.39659L11.1748 4.6498L10.1373 3.56653ZM10.1854 3.20167C10.2311 3.24811 10.2537 3.31085 10.2493 3.37801L11.746 3.47695C11.7771 3.00662 11.6169 2.51782 11.2546 2.1496L10.1854 3.20167ZM10.2493 3.37801C10.2451 3.44113 10.2177 3.49655 10.1713 3.53584L11.1408 4.6805C11.5143 4.36414 11.7166 3.923 11.746 3.47695L10.2493 3.37801ZM10.2655 4.17748H10.9977V2.67748H10.2655V4.17748Z" fill="#606060"/>
</svg>
